<?xml version="1.0" encoding="utf-8"?>
<!-- Generator: Adobe Illustrator 16.0.3, SVG Export Plug-In . SVG Version: 6.00 Build 0)  -->
<!DOCTYPE svg PUBLIC "-//W3C//DTD SVG 1.1//EN" "http://www.w3.org/Graphics/SVG/1.1/DTD/svg11.dtd">
<svg version="1.1" id="Calque_1" xmlns="http://www.w3.org/2000/svg" xmlns:xlink="http://www.w3.org/1999/xlink" x="0px" y="0px"
	 width="2409.45px" height="1559.061px" viewBox="0 0 2409.45 1559.061" enable-background="new 0 0 2409.45 1559.061"
	 xml:space="preserve">
<g id="_x38_eK1vh_1_">
	<g>
		<path fill-rule="evenodd" clip-rule="evenodd" fill="#FFFFFF" d="M1051.083,473.771c-0.938,10.927-3.411,21.536-7.472,31.752
			c-11.455,28.82-31.054,50.496-58.083,65.493c-4.055,2.25-8.401,4.073-12.78,5.621c-11.142,3.938-19.54,11.151-25.987,20.867
			c-6.526,9.834-12.8,19.85-19.674,29.434c-5.363,7.477-12.568,12.439-21.894,14.584c-12.492,2.873-21.246,11.259-28.46,21.422
			c-1.023,1.441-1.969,2.938-2.951,4.409c-0.568-0.253-1.136-0.505-1.704-0.758c2.856-6.862,5.406-13.872,8.635-20.554
			c6.396-13.232,16.504-22.984,28.646-31.228c5.104-3.465,9.145-9.125,12.402-14.549c6.066-10.099,10.702-21.064,16.859-31.101
			c7.594-12.378,18.788-18.664,33.819-19.657c18.519-1.224,32.995-11.25,45.29-24.753c12.715-13.967,21.339-30.465,29.831-47.075
			c0.734-1.436,1.495-2.857,2.244-4.285C1050.229,473.52,1050.656,473.646,1051.083,473.771z"/>
		<path fill-rule="evenodd" clip-rule="evenodd" fill="#FFFFFF" d="M686.437,473.997c7.068,12.23,13.637,24.786,21.333,36.606
			c9.276,14.247,20.68,26.8,36.848,33.375c7.266,2.955,15.235,4.641,23.048,5.678c11.424,1.516,20.864,6.164,27.354,15.536
			c4.996,7.214,9.599,14.865,13.181,22.857c6.36,14.19,15.366,25.267,28.502,34.215c14.488,9.869,21.636,25.762,26.557,42.37
			c0.206,0.696,0.144,1.472,0.302,3.34c-3.267-4.322-5.657-7.878-8.441-11.093c-7.052-8.142-15.698-13.529-26.341-16.179
			c-13.558-3.375-20.541-14.546-27.663-25.256c-4.699-7.065-9.118-14.318-13.873-21.345c-6.338-9.368-15.69-14.608-25.956-18.641
			c-17.859-7.015-32.58-18.303-45.35-32.6c-13.167-14.741-22.07-31.598-27.229-50.499c-1.637-5.998-2.334-12.251-3.462-18.388
			C685.644,473.983,686.041,473.99,686.437,473.997z"/>
		<path fill-rule="evenodd" clip-rule="evenodd" fill="#FFFFFF" d="M859.02,635.319c-1.042-3.725-2.104-7.445-3.123-11.176
			c-4.76-17.419-11.021-34.177-20.704-49.574c-8.692-13.822-20.121-23.242-36.345-27.576c-31.983-8.543-58.868-25.387-78.604-52.463
			c-15.676-21.505-24.25-45.73-26.454-72.221c-0.458-5.505-0.735-11.024-1.096-16.537c0.51-0.081,1.021-0.161,1.531-0.241
			c2.658,7.767,4.996,15.661,8.032,23.277c11.012,27.631,24.271,53.823,49.114,72.015c9.607,7.035,21.112,9.574,32.234,13.007
			c12.215,3.771,24.482,7.202,35.203,14.862c10.745,7.677,17.588,17.93,22.826,29.665c8.151,18.262,11.976,37.689,15.54,57.184
			c1.183,6.473,1.996,13.014,2.979,19.524C859.774,635.151,859.396,635.235,859.02,635.319z"/>
		<path fill-rule="evenodd" clip-rule="evenodd" fill="#FFFFFF" d="M876.622,633.235c1.088-7.166,1.944-14.376,3.308-21.489
			c4.298-22.416,9.081-44.696,20.849-64.719c6.824-11.612,16.628-20.066,28.934-24.994c11.393-4.562,23.242-8.047,35.025-11.553
			c17.521-5.213,30.719-16.149,41.654-30.3c15.683-20.295,25.838-43.329,33.503-67.599c0.701-2.218,1.455-4.42,3.117-6.641
			c0,5.938,0.638,11.958-0.115,17.799c-2.653,20.603-7.998,40.395-18.638,58.537c-18.388,31.353-45.484,51.554-79.646,62.836
			c-5.682,1.876-11.587,3.165-17.119,5.394c-14.097,5.68-22.39,17.28-29.618,29.905c-8.93,15.6-14.439,32.467-18.822,49.775
			c-0.277,1.093-0.738,2.14-1.114,3.208C877.501,633.341,877.062,633.288,876.622,633.235z"/>
		<path fill-rule="evenodd" clip-rule="evenodd" fill="#FFFFFF" d="M837.775,481.628c-8.818-6.067-18.02-11.651-26.381-18.292
			c-24.264-19.272-44.294-42.25-58.325-70.059c-6.427-12.739-11.002-26.354-10.867-40.66c0.18-18.946,8.175-34.672,22.979-46.833
			c16.658-13.683,36.478-20.298,56.818-25.775c5.573-1.5,11.251-2.61,17.17-2.983c-3.965,1.367-7.94,2.708-11.895,4.106
			c-16.116,5.699-31.369,12.828-43.896,24.946c-15.095,14.604-20.846,32.163-18.572,52.943c1.817,16.603,7.972,31.456,16.002,45.81
			c14.17,25.331,32.434,47.473,52.565,68.192c0.578,0.595,1.111,1.236,1.643,1.875c1.36,1.634,2.707,3.279,4.059,4.919
			C838.643,480.421,838.208,481.025,837.775,481.628z"/>
		<path fill-rule="evenodd" clip-rule="evenodd" fill="#FFFFFF" d="M897.625,277.251c23.152,4.182,45.806,9.529,65.617,22.764
			c13.53,9.039,24.11,20.348,28.638,36.488c4.335,15.453,1.781,30.291-3.515,44.978c-8.125,22.532-22.092,41.33-38.087,58.667
			c-13.812,14.972-28.952,28.511-47.075,38.272c-1.556,0.838-3.184,1.542-4.778,2.307c-0.33-0.367-0.66-0.734-0.99-1.101
			c2.351-2.578,4.669-5.185,7.057-7.728c24.038-25.606,46.171-52.586,60.17-85.24c6.341-14.79,9.122-30.428,6.85-46.384
			c-2.647-18.589-13.714-32.08-28.654-42.716c-12.088-8.606-25.797-13.708-39.682-18.436
			C901.327,278.495,899.475,277.875,897.625,277.251z"/>
		<path fill-rule="evenodd" clip-rule="evenodd" fill="#FFFFFF" d="M838.185,428.901c10.529-4.692,18.427-12.368,29.376-12.914
			c13.152-0.656,22.031,9.574,19.069,22.357c-6.154,26.558-7.72,53.598-9.558,80.64c-1.838,27.048-3.959,54.077-5.69,81.131
			c-1.02,15.94-1.521,31.914-2.259,47.873c-0.075,1.632-0.177,3.262-0.842,4.901c-0.451-4.075-1.148-8.14-1.308-12.226
			c-0.506-12.977-0.711-25.965-1.216-38.942c-1.184-30.435-2.514-60.863-3.705-91.298c-0.495-12.642-0.738-25.293-1.183-37.938
			c-0.246-6.986-0.366-13.998-1.094-20.939c-0.882-8.412-6.956-13.302-13.348-17.73
			C844.175,432.255,841.717,430.992,838.185,428.901z"/>
		<path fill-rule="evenodd" clip-rule="evenodd" fill="#FFFFFF" d="M727.286,341.422c-1.857,10.25-4.482,20.431-5.427,30.765
			c-2.866,31.341,5.269,58.876,30.727,79.177c5.746,4.582,13.027,7.304,19.747,10.584c12.098,5.907,24.625,11.006,36.4,17.486
			c23.622,13,36.139,33.647,39.157,60.248c0.027,0.239-0.296,0.519-0.785,1.315c-1.817-3.242-3.513-6.207-5.152-9.203
			c-10.185-18.619-25.19-32.207-44.286-41.028c-6.713-3.102-14.368-4.093-21.433-6.514c-29.191-10.001-49.288-29.464-60.254-58.364
			c-8.174-21.542-7.808-42.993,0.672-64.29c2.801-7.033,6.272-13.799,9.437-20.687C726.488,341.083,726.887,341.252,727.286,341.422
			z"/>
		<path fill-rule="evenodd" clip-rule="evenodd" fill="#FFFFFF" d="M889.584,540.96c0.06-12.603,3.6-24.012,9.816-34.597
			c9.826-16.735,25.469-26.43,42.325-34.489c12.612-6.03,26.045-10.59,38.008-17.67c17.078-10.108,27.043-26.256,32.092-45.316
			c5.757-21.735,3.68-43.223-2.582-64.512c-0.274-0.931-0.5-1.875-0.749-2.814c0.416-0.204,0.831-0.408,1.247-0.612
			c2.716,5.032,5.81,9.898,8.084,15.122c11.236,25.816,11.801,51.973-0.331,77.425c-12.487,26.197-32.532,44.646-61.271,51.701
			c-28.872,7.088-49.652,23.877-63.501,49.808C891.666,536.986,890.63,538.976,889.584,540.96z"/>
	</g>
</g>
</svg>
