<?xml version="1.0" encoding="utf-8"?>
<!DOCTYPE svg PUBLIC "-//W3C//DTD SVG 1.1//EN" "http://www.w3.org/Graphics/SVG/1.1/DTD/svg11.dtd">
<svg version="1.1" id="Calque_1" xmlns="http://www.w3.org/2000/svg" xmlns:xlink="http://www.w3.org/1999/xlink" x="0px" y="0px"
	 width="282px" height="285px" viewBox="0 0 282 285" enable-background="new 0 0 282 285" xml:space="preserve">
<g>
	<path fill="#FFFFFF" d="M157.963,197.234"/>
	<path fill="#FFFFFF" d="M164.963,248.234c-8,23-30.999,37-48.999,30c-14-5-19-18-34-21c-6-1-14,1-21-1c-24-7-28-37-17-57
		c17-22,89-36,100.999-54l0,0C141.963,161.234,178.963,225.234,164.963,248.234z"/>
	<path fill="#FFFFFF" d="M144.963,145.234L144.963,145.234c-35-4-90.999,49-126.999,21c-8-6-15-27-10-39c4-11,9-12,14-26
		c4-12-3-22,5-38c6-12,27-25,44-20c39,13,37,30,50,64C120.964,108.235,127.964,130.235,144.963,145.234z"/>
	<path fill="#FFFFFF" d="M144.963,145.234c4-7-5.999-47-13.999-63s-20-39-7-60c10-15,30.999-23,44.999-18c15,4,29,18,37,21
		c8,4,17,3,25,8c11,7,18,19,19,28c2,11,7,35-19,45C203.963,113.235,158.963,129.235,144.963,145.234
		C144.963,145.234,144.699,145.5,144.963,145.234z"/>
	<path fill="#FFFFFF" d="M157.963,183.234"/>
	<path fill="#FFFFFF" d="M166.963,122.235"/>
	<path fill="#FFFFFF" d="M145.963,146.234"/>
</g>
<g>
	<path fill="#FFFFFF" d="M161.363,198.635"/>
	<path fill="#FFFFFF" d="M161.363,184.635"/>
	<path fill="#FFFFFF" d="M170.363,123.635"/>
	<path fill="#FFFFFF" d="M149.363,147.635"/>
</g>
<path fill="#FFFFFF" d="M180,139.199c26-9,69-45,93-10c7,10,5,15,6,24c-2,16-17,27-21,41c-4,12,1,28-9,39c-7,9-31,22-54-2
	c-11-11-26-58-50-86C144,145.199,166,144.199,180,139.199z"/>
</svg>
